<?xml version="1.0" encoding="UTF-8"?>
<svg id="b" data-name="Capa 2" xmlns="http://www.w3.org/2000/svg" viewBox="0 0 78.06 57.11">
  <g id="c" data-name="Capa 1">
    <path d="m77.9,13.74c-1.1-7.77-7.78-13.74-15.85-13.74H.9v13.74h51.31s.29-.02.77,0c2.28.11,8.84,1.27,8.84,11.05v4.34c-.19-4.44-3.88-7.95-8.34-7.95H10.23c-5.65,0-10.23,4.58-10.23,10.23v15.47c0,5.65,4.58,10.23,10.23,10.23h45.37c1.38,0,2.75-.46,3.79-1.37,1.14-1,2.29-2.68,2.43-5.43v6.79h16.24V16.01c0-.77-.05-1.52-.16-2.27Zm-21,28c-.66.66-1.58,1.07-2.59,1.07H21.91c-2.02,0-3.66-1.64-3.66-3.67,0-1.01.41-1.93,1.07-2.59.66-.66,1.58-1.07,2.59-1.07h32.4c2.02,0,3.67,1.64,3.67,3.66,0,1.02-.41,1.93-1.08,2.6Z" style="fill: #1d1d1b;"/>
  </g>
</svg>