<?xml version="1.0" encoding="UTF-8"?>
<svg id="b" data-name="Capa 2" xmlns="http://www.w3.org/2000/svg" viewBox="0 0 396.09 249.39">
  <g id="c" data-name="Capa 1">
    <path d="m391.77,69.93l-64.05,179.45h-70.9l50.38-141.13c15.24-42.71-11.63-47.76-21.41-48.22-2.06-.1-3.37,0-3.37,0H58.34L79.77,0h267.06c35.23,0,55.08,26.1,47.76,60.03-.67,3.24-1.62,6.53-2.82,9.9Z" style="fill: #1c3ae6;"/>
    <path d="m276.36,92.52H87.49c-24.67,0-51.81,20-60.62,44.67L2.77,204.72c-8.81,24.67,4.06,44.67,28.73,44.67h198.12c6.05,0,12.73-1.99,18.69-5.97,7-4.67,15.17-12.7,19.98-26.18l31.81-89.11c6.74-19.82-3.95-35.61-23.74-35.61Zm-17.09,89.75c-3.92,2.91-8.59,4.69-13,4.69H104.81c-8.83,0-13.44-7.17-10.28-16.02,1.58-4.41,4.79-8.42,8.73-11.3,3.92-2.91,8.56-4.69,12.98-4.69h141.46c8.85,0,13.46,7.17,10.31,16-1.58,4.44-4.79,8.42-8.74,11.33Z" style="fill: #1c3ae6;"/>
  </g>
</svg>