<?xml version="1.0" encoding="UTF-8"?>
<svg id="b" data-name="Capa 2" xmlns="http://www.w3.org/2000/svg" viewBox="0 0 396.09 249.39">
  <g id="c" data-name="Capa 1">
    <path d="m346.82,0H79.76l-21.42,60.03h224.07s1.31-.1,3.37,0c9.78.46,36.65,5.51,21.41,48.22l-7.03,19.7c6.61-19.74-4.07-35.43-23.81-35.43H87.49c-24.67,0-51.81,20-60.61,44.67L2.77,204.72c-8.8,24.67,4.06,44.67,28.73,44.67h198.12c6.05,0,12.73-1.99,18.69-5.97,6.78-4.52,14.66-12.2,19.52-24.92l-11.02,30.88h70.9l64.05-179.45c1.21-3.37,2.15-6.66,2.82-9.9,7.32-33.93-12.53-60.03-47.76-60.03Zm-87.55,182.27c-3.92,2.91-8.59,4.69-13,4.69H104.8c-8.82,0-13.43-7.17-10.27-16.02,1.57-4.41,4.79-8.42,8.72-11.3,3.93-2.91,8.57-4.69,12.98-4.69h141.46c8.86,0,13.47,7.16,10.32,15.99-1.59,4.44-4.79,8.42-8.74,11.33Z" style="fill: #1c3ae6;"/>
  </g>
</svg>