<?xml version="1.0" encoding="UTF-8"?>
<svg id="Capa_2" data-name="Capa 2" xmlns="http://www.w3.org/2000/svg" viewBox="0 0 19.84 14.51">
  <defs>
    <style>
      .cls-1 {
        fill: #fff;
      }
    </style>
  </defs>
  <g id="Capa_1-2" data-name="Capa 1">
    <path class="cls-1" d="m19.8,3.49c-.28-1.97-1.98-3.49-4.03-3.49H.23v3.49h13.24c.58.03,2.25.33,2.25,2.81v1.16c-.02-1.16-.97-2.07-2.13-2.07H2.6c-1.43,0-2.6,1.16-2.6,2.59v3.93c0,1.44,1.17,2.6,2.6,2.6h11.53c.36,0,.7-.11.97-.34.31-.28.62-.74.62-1.53v1.87h4.12V4.07c0-.2-.01-.39-.04-.58Zm-5.34,7.12c-.16.17-.4.27-.65.27H5.57c-.51,0-.93-.42-.93-.93,0-.26.11-.49.28-.66.16-.17.4-.27.65-.27h8.24c.51,0,.93.42.93.93,0,.26-.11.49-.28.66Z"/>
  </g>
</svg>