<?xml version="1.0" encoding="UTF-8"?>
<svg id="Capa_2" data-name="Capa 2" xmlns="http://www.w3.org/2000/svg" viewBox="0 0 93.92 14.21">
  <defs>
    <style>
      .cls-1 {
        fill: #f4f4f4;
      }
    </style>
  </defs>
  <g id="Capa_1-2" data-name="Capa 1">
    <path class="cls-1" d="m18.96,3.66c-.27-1.89-1.9-3.35-3.86-3.35H.22v3.35h12.49s.07-.01.18,0c.56.02,2.16.3,2.16,2.68v1.11c-.02-1.1-.93-1.98-2.04-1.98H2.49c-1.37,0-2.49,1.11-2.49,2.49v3.76c0,1.37,1.12,2.49,2.49,2.49h11.04c.34,0,.67-.11.92-.33.3-.26.6-.71.6-1.46v1.79h3.95V4.21c0-.19-.02-.37-.04-.55Zm-5.11,6.81c-.16.16-.39.26-.63.26h-7.89c-.49,0-.89-.4-.89-.89,0-.25.1-.47.26-.63.16-.16.39-.26.63-.26h7.89c.49,0,.89.4.89.89,0,.24-.1.47-.26.63Z"/>
    <path class="cls-1" d="m67.01,3.66c-.26-1.89-1.89-3.35-3.85-3.35h-14.88v3.35h12.48s.07-.01.19,0c.55.02,2.15.3,2.15,2.68v1.11c-.02-1.1-.93-1.98-2.03-1.98h-10.52c-1.38,0-2.49,1.11-2.49,2.49v3.76c0,1.37,1.11,2.49,2.49,2.49h11.04c.33,0,.67-.11.92-.33.3-.26.59-.71.59-1.46v1.79h3.95V4.21c0-.19-.01-.37-.04-.55Zm-5.11,6.81c-.16.16-.38.26-.63.26h-7.88c-.49,0-.89-.4-.89-.89,0-.25.1-.47.26-.63s.38-.26.63-.26h7.88c.5,0,.9.4.9.89,0,.24-.1.47-.27.63Z"/>
    <path class="cls-1" d="m32.48,10.48l-4.49,3.73h-4.47c-1.03,0-1.96-.42-2.64-1.09-.67-.68-1.09-1.61-1.09-2.64V.31h3.73v8.14c0,1.12.91,2.03,2.03,2.03h6.92Z"/>
    <polygon class="cls-1" points="43.5 7.03 43.49 7.04 43.49 7.05 40.62 9.45 34.95 14.2 29.19 14.2 37.74 7.03 29.72 .31 35.49 .31 40.62 4.62 43.5 7.03"/>
    <rect class="cls-1" x="43.27" y=".31" width="4.1" height="13.9"/>
    <rect class="cls-1" x="69.55" y="7.13" width="3.52" height="7.08"/>
    <path class="cls-1" d="m76.42,3.77h11.68v-.95l3.34,1.93-3.34,1.93v-.95h-12.32v8.49h4.1v-5.08h11.42c1.44,0,2.6-1.17,2.6-2.6v-3.61c0-1.44-1.17-2.6-2.6-2.6h-14.89v3.46Z"/>
    <circle class="cls-1" cx="71.31" cy="5.71" r=".49"/>
    <path class="cls-1" d="m72.88,4.21l-.71.69c-.13-.11-.45-.32-.85-.32s-.71.22-.84.33l-.73-.71c.15-.16.69-.66,1.65-.62.93.04,1.36.47,1.48.63Z"/>
    <path class="cls-1" d="m74.16,2.96l-.73.7c-.19-.19-.97-.88-2.11-.88s-1.94.7-2.12.88l-.74-.71c.2-.22,1.17-1.17,2.86-1.17s2.66.98,2.84,1.18Z"/>
    <path class="cls-1" d="m75.43,1.74l-.72.7c-.17-.17-1.49-1.43-3.42-1.43s-3.21,1.26-3.37,1.43l-.74-.72c.11-.12,1.64-1.72,4.1-1.72s4.02,1.6,4.15,1.74Z"/>
  </g>
</svg>