<?xml version="1.0" encoding="UTF-8"?>
<svg id="b" data-name="Capa 2" xmlns="http://www.w3.org/2000/svg" xmlns:xlink="http://www.w3.org/1999/xlink" viewBox="0 0 339.18 339.18">
  <defs>
    <radialGradient id="d" data-name="Degradado sin nombre 17" cx="169.59" cy="169.59" fx="169.59" fy="169.59" r="169.59" gradientUnits="userSpaceOnUse">
      <stop offset="0" stop-color="#fff" stop-opacity="0"/>
      <stop offset=".73" stop-color="#878787" stop-opacity=".24"/>
      <stop offset=".85" stop-color="#000" stop-opacity=".52"/>
      <stop offset="1" stop-color="#000"/>
    </radialGradient>
  </defs>
  <g id="c" data-name="Capa 1">
    <path d="m339.18,169.59c0,12.55-1.36,24.79-3.95,36.56-2.97,13.51-7.54,26.41-13.52,38.49-3.34,6.76-7.11,13.25-11.28,19.46-4.67,6.94-9.83,13.51-15.43,19.67-18.13,19.88-40.91,35.44-66.62,44.94-7.19,2.66-14.61,4.85-22.23,6.52-11.77,2.59-24.01,3.95-36.56,3.95s-24.79-1.36-36.56-3.95c-6.69-1.47-13.22-3.33-19.59-5.57-26.34-9.24-49.72-24.8-68.3-44.86-5.32-5.74-10.24-11.84-14.72-18.27-4.44-6.35-8.45-13.02-11.99-19.97-6.45-12.64-11.35-26.19-14.48-40.41-2.59-11.77-3.95-24.01-3.95-36.56s1.36-24.78,3.95-36.55c3.06-13.95,7.85-27.26,14.12-39.69,3.53-7.01,7.54-13.74,11.97-20.16,4.51-6.51,9.47-12.69,14.82-18.5,18.63-20.21,42.11-35.88,68.58-45.16,6.37-2.24,12.9-4.1,19.59-5.57C144.8,1.37,157.04,0,169.59,0s24.79,1.36,36.56,3.95c7.62,1.67,15.04,3.86,22.23,6.52,25.85,9.55,48.73,25.22,66.89,45.25,4.68,5.16,9.05,10.62,13.07,16.33,4.26,6.04,8.13,12.37,11.58,18.96,6.86,13.09,12.05,27.19,15.31,42.02,2.59,11.77,3.95,24,3.95,36.55Z" style="fill: #fff;"/>
    <path d="m206.15,3.96v331.27c-11.77,2.59-24.01,3.95-36.56,3.95s-24.79-1.36-36.56-3.95V3.96C144.8,1.37,157.04,0,169.59,0s24.79,1.36,36.56,3.95Z" style="fill: #c8102e;"/>
    <path d="m339.18,169.59c0,12.55-1.36,24.79-3.95,36.56H3.95c-2.59-11.77-3.95-24.01-3.95-36.56s1.36-24.78,3.95-36.55h331.28c2.59,11.77,3.95,24,3.95,36.55Z" style="fill: #c8102e;"/>
    <path d="m113.44,9.52v87.33L44.86,54.69c18.63-20.21,42.11-35.88,68.58-45.16Z" style="fill: #012169;"/>
    <path d="m295.27,55.73l-66.89,41.13V10.48c25.85,9.55,48.73,25.22,66.89,45.25Z" style="fill: #012169;"/>
    <path d="m113.44,242.8v86.86c-26.34-9.24-49.72-24.8-68.3-44.86l68.3-42Z" style="fill: #012169;"/>
    <path d="m295,283.76c-18.13,19.88-40.91,35.44-66.62,44.94v-85.91l66.62,40.97Z" style="fill: #012169;"/>
    <path d="m82.26,104.76h-43.81l-20.38-11.42c3.53-7.01,7.54-13.74,11.97-20.16l52.22,31.58Z" style="fill: #c8102e;"/>
    <path d="m319.92,91.01l-35.03,21.66h-43.81l67.26-40.62c4.26,6.04,8.13,12.37,11.58,18.96Z" style="fill: #c8102e;"/>
    <path d="m94.89,226.5l-64.47,40.02c-4.44-6.35-8.45-13.02-11.99-19.97l32.77-20.05h43.69Z" style="fill: #c8102e;"/>
    <path d="m321.71,244.64c-3.34,6.76-7.11,13.25-11.28,19.46l-41.48-25.07h43.69l9.07,5.61Z" style="fill: #c8102e;"/>
    <path d="m339.18,169.59c0,12.55-1.36,24.79-3.95,36.56-2.97,13.51-7.54,26.41-13.52,38.49-3.34,6.76-7.11,13.25-11.28,19.46-4.67,6.94-9.83,13.51-15.43,19.67-18.13,19.88-40.91,35.44-66.62,44.94-7.19,2.66-14.61,4.85-22.23,6.52-11.77,2.59-24.01,3.95-36.56,3.95s-24.79-1.36-36.56-3.95c-6.69-1.47-13.22-3.33-19.59-5.57-26.34-9.24-49.72-24.8-68.3-44.86-5.32-5.74-10.24-11.84-14.72-18.27-4.44-6.35-8.45-13.02-11.99-19.97-6.45-12.64-11.35-26.19-14.48-40.41-2.59-11.77-3.95-24.01-3.95-36.56s1.36-24.78,3.95-36.55c3.06-13.95,7.85-27.26,14.12-39.69,3.53-7.01,7.54-13.74,11.97-20.16,4.51-6.51,9.47-12.69,14.82-18.5,18.63-20.21,42.11-35.88,68.58-45.16,6.37-2.24,12.9-4.1,19.59-5.57C144.8,1.37,157.04,0,169.59,0s24.79,1.36,36.56,3.95c7.62,1.67,15.04,3.86,22.23,6.52,25.85,9.55,48.73,25.22,66.89,45.25,4.68,5.16,9.05,10.62,13.07,16.33,4.26,6.04,8.13,12.37,11.58,18.96,6.86,13.09,12.05,27.19,15.31,42.02,2.59,11.77,3.95,24,3.95,36.55Z" style="fill: none;"/>
    <circle cx="169.59" cy="169.59" r="169.59" style="fill: url(#d);"/>
  </g>
</svg>