<?xml version="1.0" encoding="UTF-8"?>
<svg id="b" data-name="Capa 2" xmlns="http://www.w3.org/2000/svg" xmlns:xlink="http://www.w3.org/1999/xlink" viewBox="0 0 339.19 339.18">
  <defs>
    <radialGradient id="d" data-name="Degradado sin nombre 17" cx="169.59" cy="169.59" fx="169.59" fy="169.59" r="169.59" gradientUnits="userSpaceOnUse">
      <stop offset="0" stop-color="#fff" stop-opacity="0"/>
      <stop offset=".73" stop-color="#878787" stop-opacity=".24"/>
      <stop offset=".85" stop-color="#000" stop-opacity=".52"/>
      <stop offset="1" stop-color="#000"/>
    </radialGradient>
  </defs>
  <g id="c" data-name="Capa 1">
    <path d="m339.19,169.59c0,12.55-1.36,24.79-3.95,36.56-2.97,13.51-7.54,26.41-13.52,38.49-1.98,4.01-4.11,7.92-6.39,11.73H23.86c-1.91-3.2-3.72-6.47-5.42-9.81-6.45-12.64-11.35-26.19-14.48-40.41C1.37,194.38,0,182.14,0,169.59s1.36-24.78,3.95-36.55c3.06-13.95,7.85-27.26,14.12-39.69,1.81-3.59,3.74-7.1,5.79-10.53h291.46c1.61,2.68,3.14,5.42,4.6,8.2,6.86,13.09,12.05,27.19,15.31,42.02,2.59,11.77,3.95,24,3.95,36.55Z" style="fill: #fabd00;"/>
    <path d="m315.33,82.82H23.87c1.95-3.28,4.02-6.49,6.18-9.63,4.51-6.51,9.47-12.69,14.82-18.5,18.63-20.21,42.11-35.88,68.58-45.16,6.37-2.24,12.9-4.1,19.59-5.57C144.81,1.37,157.05,0,169.6,0s24.79,1.36,36.56,3.95c7.62,1.67,15.04,3.86,22.23,6.52,25.85,9.55,48.73,25.22,66.89,45.25,4.68,5.16,9.05,10.62,13.07,16.33,2.46,3.49,4.79,7.08,6.98,10.76Z" style="fill: #ad1519;"/>
    <path d="m315.33,256.37c-1.56,2.62-3.19,5.2-4.89,7.73-4.67,6.94-9.83,13.51-15.43,19.67-18.13,19.88-40.91,35.44-66.62,44.94-7.19,2.66-14.61,4.85-22.23,6.52-11.77,2.59-24.01,3.95-36.56,3.95s-24.79-1.36-36.56-3.95c-6.69-1.47-13.22-3.33-19.59-5.57-26.34-9.24-49.72-24.8-68.3-44.86-5.32-5.74-10.24-11.84-14.72-18.27-2.31-3.3-4.5-6.69-6.57-10.16h291.47Z" style="fill: #ad1519;"/>
    <circle cx="169.59" cy="169.59" r="169.59" style="fill: url(#d);"/>
  </g>
</svg>