<?xml version="1.0" encoding="UTF-8"?>
<svg id="b" data-name="Capa 2" xmlns="http://www.w3.org/2000/svg" viewBox="0 0 302.52 45.76">
  <g id="c" data-name="Capa 1">
    <path d="m61.06,11.77c-.86-6.09-6.09-10.78-12.42-10.78H.71v10.78h40.22s.22-.02.6,0c1.79.08,6.93.99,6.93,8.65v3.57c-.06-3.56-2.99-6.39-6.54-6.39H8.02c-4.43,0-8.02,3.59-8.02,8.02v12.12c0,4.43,3.59,8.02,8.02,8.02h35.56c1.09,0,2.16-.36,2.97-1.08.96-.83,1.91-2.28,1.91-4.69v5.76h12.73V13.54c0-.6-.04-1.19-.13-1.77Zm-16.46,21.94c-.51.52-1.24.84-2.03.84h-25.39c-1.58,0-2.87-1.29-2.87-2.88,0-.79.32-1.51.84-2.02.52-.53,1.24-.85,2.03-.85h25.39c1.59,0,2.88,1.29,2.88,2.87,0,.8-.32,1.52-.85,2.04Z" style="fill: #fff;"/>
    <path d="m215.85,11.77c-.86-6.09-6.09-10.78-12.41-10.78h-47.94v10.78h40.22s.23-.02.6,0c1.79.08,6.94.99,6.94,8.65v3.57c-.06-3.56-2.99-6.39-6.55-6.39h-33.9c-4.42,0-8.01,3.59-8.01,8.02v12.12c0,4.43,3.59,8.02,8.01,8.02h35.57c1.08,0,2.15-.36,2.97-1.08.95-.83,1.91-2.28,1.91-4.69v5.76h12.72V13.54c0-.6-.04-1.19-.13-1.77Zm-16.45,21.94c-.52.52-1.24.84-2.04.84h-25.39c-1.58,0-2.87-1.29-2.87-2.88,0-.79.32-1.51.84-2.02.52-.53,1.24-.85,2.03-.85h25.39c1.59,0,2.88,1.29,2.88,2.87,0,.8-.32,1.52-.84,2.04Z" style="fill: #fff;"/>
    <path d="m104.62,33.75l-14.46,12h-14.39c-3.32,0-6.31-1.34-8.49-3.51-2.17-2.18-3.51-5.17-3.51-8.49V.99h12v26.21c0,3.62,2.94,6.55,6.55,6.55h22.3Z" style="fill: #fff;"/>
    <polygon points="140.11 22.65 140.08 22.69 140.08 22.69 130.84 30.45 112.59 45.75 94.02 45.75 121.55 22.66 95.72 .99 114.3 .99 130.83 14.87 140.11 22.65" style="fill: #fff;"/>
    <rect x="139.37" y=".99" width="13.21" height="44.76" style="fill: #fff;"/>
    <rect x="224.02" y="22.96" width="11.34" height="22.8" style="fill: #fff;"/>
    <path d="m246.17,12.14h37.63v-3.07l10.75,6.2-10.75,6.21v-3.07h-39.67v27.34h13.21v-16.37h36.8c4.63,0,8.39-3.75,8.39-8.39v-11.61c0-4.63-3.75-8.39-8.39-8.39h-47.96v11.15Z" style="fill: #fff;"/>
    <circle cx="229.69" cy="18.4" r="1.57" style="fill: #fff;"/>
    <path d="m234.74,13.55l-2.3,2.22c-.43-.35-1.44-1.04-2.73-1.04s-2.3.71-2.71,1.06l-2.36-2.29c.48-.52,2.22-2.13,5.32-2,3,.13,4.37,1.53,4.78,2.04Z" style="fill: #fff;"/>
    <path d="m238.89,9.55l-2.35,2.27c-.61-.6-3.11-2.83-6.79-2.83s-6.25,2.26-6.84,2.84l-2.38-2.3c.64-.69,3.77-3.76,9.23-3.76s8.58,3.15,9.14,3.79Z" style="fill: #fff;"/>
    <path d="m242.98,5.59l-2.32,2.24c-.55-.56-4.79-4.59-11.01-4.59s-10.34,4.04-10.87,4.59l-2.38-2.31c.34-.37,5.27-5.53,13.22-5.53s12.96,5.17,13.36,5.59Z" style="fill: #fff;"/>
  </g>
</svg>