<?xml version="1.0" encoding="UTF-8"?>
<svg id="Capa_2" data-name="Capa 2" xmlns="http://www.w3.org/2000/svg" viewBox="0 0 29.07 21.26">
  <defs>
    <style>
      .cls-1 {
        fill: #fff;
      }
    </style>
  </defs>
  <g id="Capa_1-2" data-name="Capa 1">
    <path class="cls-1" d="m29.01,5.12c-.41-2.9-2.9-5.12-5.9-5.12H.34v5.12h19.1s.11-.01.29,0c.85.03,3.3.46,3.3,4.11v1.69c-.03-1.69-1.42-3.03-3.11-3.03H3.81c-2.1,0-3.81,1.7-3.81,3.81v5.75c0,2.11,1.71,3.81,3.81,3.81h16.9c.51,0,1.02-.17,1.41-.51.45-.39.91-1.08.91-2.23v2.74h6.04V5.96c0-.29-.02-.57-.06-.84Zm-7.82,10.42c-.24.25-.59.4-.96.4h-12.07c-.75,0-1.36-.61-1.36-1.37,0-.37.15-.71.4-.96.24-.25.59-.4.96-.4h12.07c.75,0,1.36.61,1.36,1.36,0,.38-.15.72-.4.97Z"/>
  </g>
</svg>