<?xml version="1.0" encoding="UTF-8"?>
<svg id="Capa_2" data-name="Capa 2" xmlns="http://www.w3.org/2000/svg" viewBox="0 0 149.11 42.58">
  <defs>
    <style>
      .cls-1 {
        fill: #fff;
      }

      .cls-2 {
        fill: #ffec00;
      }

      .cls-3 {
        fill: none;
        stroke: #ffec00;
        stroke-miterlimit: 10;
        stroke-width: 2px;
      }
    </style>
  </defs>
  <g id="Capa_1-2" data-name="Capa 1">
    <path class="cls-3" d="m38.33,9.19h104.53c2.9,0,5.26,2.35,5.26,5.26v13.6c0,2.9-2.35,5.26-5.26,5.26H38.33V9.19h0Z"/>
    <rect class="cls-2" x="0" y="0" width="42.58" height="42.58" rx="5.67" ry="5.67"/>
    <path class="cls-1" d="m66.59,17.51c-.27-1.89-1.89-3.35-3.86-3.35h-14.88v3.35h12.49s.07-.01.19,0c.55.03,2.15.31,2.15,2.69v1.1c-.02-1.1-.93-1.98-2.03-1.98h-10.53c-1.37,0-2.49,1.11-2.49,2.49v3.76c0,1.38,1.12,2.49,2.49,2.49h11.04c.34,0,.67-.11.93-.33.29-.26.59-.71.59-1.46v1.79h3.95v-10c0-.19-.01-.37-.04-.55Zm-5.11,6.81c-.16.16-.39.26-.63.26h-7.88c-.5,0-.9-.4-.9-.89,0-.25.1-.47.27-.63.16-.16.38-.26.63-.26h7.88c.49,0,.89.4.89.89,0,.25-.1.47-.26.63Z"/>
    <path class="cls-1" d="m114.65,17.51c-.27-1.89-1.9-3.35-3.86-3.35h-14.88v3.35h12.48s.08-.01.19,0c.56.03,2.15.31,2.15,2.69v1.1c-.01-1.1-.92-1.98-2.03-1.98h-10.52c-1.38,0-2.49,1.11-2.49,2.49v3.76c0,1.38,1.11,2.49,2.49,2.49h11.04c.34,0,.67-.11.92-.33.3-.26.59-.71.59-1.46v1.79h3.96v-10c0-.19-.02-.37-.04-.55Zm-5.11,6.81c-.16.16-.39.26-.64.26h-7.88c-.49,0-.89-.4-.89-.89,0-.25.1-.47.26-.63s.39-.26.63-.26h7.88c.5,0,.9.4.9.89,0,.25-.1.47-.26.63Z"/>
    <path class="cls-1" d="m80.11,24.33l-4.49,3.73h-4.47c-1.03,0-1.96-.42-2.64-1.09-.67-.68-1.09-1.61-1.09-2.64v-10.17h3.73v8.14c0,1.12.91,2.03,2.03,2.03h6.92Z"/>
    <polygon class="cls-1" points="91.13 20.89 91.12 20.9 91.12 20.9 88.25 23.31 82.59 28.06 76.82 28.06 85.37 20.89 77.35 14.16 83.12 14.16 88.25 18.47 91.13 20.89"/>
    <rect class="cls-1" x="90.9" y="14.16" width="4.1" height="13.9"/>
    <rect class="cls-1" x="117.18" y="20.98" width="3.52" height="7.08"/>
    <path class="cls-1" d="m124.06,17.62h11.68v-.95l3.34,1.93-3.34,1.93v-.95h-12.32v8.49h4.1v-5.08h11.42c1.44,0,2.6-1.17,2.6-2.6v-3.61c0-1.44-1.17-2.6-2.6-2.6h-14.89v3.46Z"/>
    <circle class="cls-1" cx="118.94" cy="19.57" r=".49"/>
    <path class="cls-1" d="m120.51,18.06l-.71.69c-.13-.11-.45-.32-.85-.32s-.71.22-.84.33l-.73-.71c.15-.16.69-.66,1.65-.62.93.04,1.36.47,1.48.63Z"/>
    <path class="cls-1" d="m121.8,16.82l-.73.7c-.19-.19-.97-.88-2.11-.88s-1.94.7-2.12.88l-.74-.71c.2-.22,1.17-1.17,2.86-1.17s2.66.98,2.84,1.18Z"/>
    <path class="cls-1" d="m123.07,15.59l-.72.7c-.17-.17-1.49-1.43-3.42-1.43s-3.21,1.26-3.37,1.43l-.74-.72c.11-.12,1.64-1.72,4.1-1.72s4.02,1.6,4.15,1.74Z"/>
    <path class="cls-1" d="m36.13,14.72c-.41-2.9-2.9-5.12-5.9-5.12H7.46v5.12h19.1s.11-.01.29,0c.85.03,3.3.46,3.3,4.11v1.69c-.03-1.69-1.42-3.03-3.11-3.03H10.93c-2.1,0-3.81,1.7-3.81,3.81v5.75c0,2.11,1.71,3.81,3.81,3.81h16.9c.51,0,1.02-.17,1.41-.51.45-.39.91-1.08.91-2.23v2.74h6.04v-15.3c0-.29-.02-.57-.06-.84Zm-7.82,10.42c-.24.25-.59.4-.96.4h-12.07c-.75,0-1.36-.61-1.36-1.37,0-.37.15-.71.4-.96.24-.25.59-.4.96-.4h12.07c.75,0,1.36.61,1.36,1.36,0,.38-.15.72-.4.97Z"/>
  </g>
</svg>